<svg width="1306" height="390" xmlns="http://www.w3.org/2000/svg" xmlns:xlink="http://www.w3.org/1999/xlink" xml:space="preserve" overflow="hidden"><g transform="translate(-1760 -1961)"><g><path d="M1894 2111.86C1894 2100.89 1902.89 2092 1913.86 2092L2913.14 2092C2924.11 2092 2933 2100.89 2933 2111.86L2933 2331.14C2933 2342.11 2924.11 2351 2913.14 2351L1913.86 2351C1902.89 2351 1894 2342.11 1894 2331.14Z" fill="#0077B2" fill-rule="evenodd" fill-opacity="0.94902"/><path d="M2218 2046.86C2218 2035.89 2226.89 2027 2237.86 2027L2978.14 2027C2989.11 2027 2998 2035.89 2998 2046.86L2998 2266.14C2998 2277.11 2989.11 2286 2978.14 2286L2237.86 2286C2226.89 2286 2218 2277.11 2218 2266.14Z" fill="#0077B2" fill-rule="evenodd" fill-opacity="0.501961"/><path d="M1762 1972.48C1762 1966.69 1766.69 1962 1772.48 1962L3052.52 1962C3058.31 1962 3063 1966.69 3063 1972.48L3063 2211.52C3063 2217.31 3058.31 2222 3052.52 2222L1772.48 2222C1766.69 2222 1762 2217.31 1762 2211.52Z" fill="#0077B2" fill-rule="evenodd" fill-opacity="0.25098"/></g></g></svg>
