<?xml version="1.0" encoding="UTF-8"?>
<svg xmlns="http://www.w3.org/2000/svg" xmlns:xlink="http://www.w3.org/1999/xlink" width="64" height="19.111792" viewBox="0 0 64 19.111792">
<defs>
<clipPath id="clip-0">
<path clip-rule="nonzero" d="M 6 6 L 58 6 L 58 19.113281 L 6 19.113281 Z M 6 6 "/>
</clipPath>
</defs>
<g clip-path="url(#clip-0)">
<path fill-rule="evenodd" fill="rgb(0%, 46.666667%, 69.803922%)" fill-opacity="0.94902" d="M 6.566406 7.394531 C 6.566406 6.855469 7.003906 6.417969 7.539062 6.417969 L 56.507812 6.417969 C 57.046875 6.417969 57.480469 6.855469 57.480469 7.394531 L 57.480469 18.136719 C 57.480469 18.675781 57.046875 19.113281 56.507812 19.113281 L 7.539062 19.113281 C 7.003906 19.113281 6.566406 18.675781 6.566406 18.136719 Z M 6.566406 7.394531 "/>
</g>
<path fill-rule="evenodd" fill="rgb(0%, 46.666667%, 69.803922%)" fill-opacity="0.501961" d="M 22.445312 4.207031 C 22.445312 3.671875 22.878906 3.234375 23.417969 3.234375 L 59.695312 3.234375 C 60.230469 3.234375 60.667969 3.671875 60.667969 4.207031 L 60.667969 14.953125 C 60.667969 15.492188 60.230469 15.925781 59.695312 15.925781 L 23.417969 15.925781 C 22.878906 15.925781 22.445312 15.492188 22.445312 14.953125 Z M 22.445312 4.207031 "/>
<path fill-rule="evenodd" fill="rgb(0%, 46.666667%, 69.803922%)" fill-opacity="0.25098" d="M 0.0976562 0.5625 C 0.0976562 0.277344 0.328125 0.0507812 0.613281 0.0507812 L 63.339844 0.0507812 C 63.625 0.0507812 63.851562 0.277344 63.851562 0.5625 L 63.851562 12.277344 C 63.851562 12.558594 63.625 12.789062 63.339844 12.789062 L 0.613281 12.789062 C 0.328125 12.789062 0.0976562 12.558594 0.0976562 12.277344 Z M 0.0976562 0.5625 "/>
</svg>
